<svg width="394" height="70" viewBox="0 0 394 70" fill="none" xmlns="http://www.w3.org/2000/svg">
<path d="M3.78906 2.8125H11.6641L26.4648 42.293L41.2305 2.8125H49.1055L29.5586 54H23.3008L3.78906 2.8125ZM0.203125 2.8125H7.69141L8.99219 36.9844V54H0.203125V2.8125ZM45.2031 2.8125H52.7266V54H43.9023V36.9844L45.2031 2.8125ZM73.3984 49.8516L83.7344 15.9609H92.8047L77.5469 59.8008C77.1953 60.7383 76.7383 61.7578 76.1758 62.8594C75.6133 63.9609 74.875 65.0039 73.9609 65.9883C73.0703 66.9961 71.957 67.8047 70.6211 68.4141C69.2852 69.0469 67.668 69.3633 65.7695 69.3633C65.0195 69.3633 64.293 69.293 63.5898 69.1523C62.9102 69.0352 62.2656 68.9062 61.6562 68.7656L61.6211 62.2969C61.8555 62.3203 62.1367 62.3438 62.4648 62.3672C62.8164 62.3906 63.0977 62.4023 63.3086 62.4023C64.7148 62.4023 65.8867 62.2266 66.8242 61.875C67.7617 61.5469 68.5234 61.0078 69.1094 60.2578C69.7188 59.5078 70.2344 58.5 70.6562 57.2344L73.3984 49.8516ZM67.5625 15.9609L76.5977 44.4375L78.1094 53.3672L72.2383 54.8789L58.4219 15.9609H67.5625ZM125.43 40.8164C125.43 39.7617 125.266 38.8242 124.938 38.0039C124.633 37.1836 124.082 36.4336 123.285 35.7539C122.488 35.0742 121.363 34.418 119.91 33.7852C118.48 33.1289 116.652 32.4609 114.426 31.7812C111.988 31.0312 109.738 30.1992 107.676 29.2852C105.637 28.3477 103.855 27.2695 102.332 26.0508C100.809 24.8086 99.625 23.3906 98.7812 21.7969C97.9375 20.1797 97.5156 18.3164 97.5156 16.207C97.5156 14.1211 97.9492 12.2227 98.8164 10.5117C99.707 8.80078 100.961 7.32422 102.578 6.08203C104.219 4.81641 106.152 3.84375 108.379 3.16406C110.605 2.46094 113.066 2.10938 115.762 2.10938C119.559 2.10938 122.828 2.8125 125.57 4.21875C128.336 5.625 130.457 7.51172 131.934 9.87891C133.434 12.2461 134.184 14.8594 134.184 17.7188H125.43C125.43 16.0312 125.066 14.543 124.34 13.2539C123.637 11.9414 122.559 10.9102 121.105 10.1602C119.676 9.41016 117.859 9.03516 115.656 9.03516C113.57 9.03516 111.836 9.35156 110.453 9.98438C109.07 10.6172 108.039 11.4727 107.359 12.5508C106.68 13.6289 106.34 14.8477 106.34 16.207C106.34 17.168 106.562 18.0469 107.008 18.8438C107.453 19.6172 108.133 20.3438 109.047 21.0234C109.961 21.6797 111.109 22.3008 112.492 22.8867C113.875 23.4727 115.504 24.0352 117.379 24.5742C120.215 25.418 122.688 26.3555 124.797 27.3867C126.906 28.3945 128.664 29.543 130.07 30.832C131.477 32.1211 132.531 33.5859 133.234 35.2266C133.938 36.8438 134.289 38.6836 134.289 40.7461C134.289 42.9023 133.855 44.8477 132.988 46.582C132.121 48.293 130.879 49.7578 129.262 50.9766C127.668 52.1719 125.746 53.0977 123.496 53.7539C121.27 54.3867 118.785 54.7031 116.043 54.7031C113.582 54.7031 111.156 54.375 108.766 53.7188C106.398 53.0625 104.242 52.0664 102.297 50.7305C100.352 49.3711 98.8047 47.6836 97.6562 45.668C96.5078 43.6289 95.9336 41.25 95.9336 38.5312H104.758C104.758 40.1953 105.039 41.6133 105.602 42.7852C106.188 43.957 106.996 44.918 108.027 45.668C109.059 46.3945 110.254 46.9336 111.613 47.2852C112.996 47.6367 114.473 47.8125 116.043 47.8125C118.105 47.8125 119.828 47.5195 121.211 46.9336C122.617 46.3477 123.672 45.5273 124.375 44.4727C125.078 43.418 125.43 42.1992 125.43 40.8164ZM149.617 0V54H141.18V0H149.617ZM148.141 33.5742L145.398 33.5391C145.422 30.9141 145.785 28.4883 146.488 26.2617C147.215 24.0352 148.223 22.1016 149.512 20.4609C150.824 18.7969 152.395 17.5195 154.223 16.6289C156.051 15.7148 158.078 15.2578 160.305 15.2578C162.18 15.2578 163.867 15.5156 165.367 16.0312C166.891 16.5469 168.203 17.3789 169.305 18.5273C170.406 19.6523 171.238 21.1289 171.801 22.957C172.387 24.7617 172.68 26.9648 172.68 29.5664V54H164.172V29.4961C164.172 27.668 163.902 26.2148 163.363 25.1367C162.848 24.0586 162.086 23.2852 161.078 22.8164C160.07 22.3242 158.84 22.0781 157.387 22.0781C155.863 22.0781 154.516 22.3828 153.344 22.9922C152.195 23.6016 151.234 24.4336 150.461 25.4883C149.688 26.543 149.102 27.7617 148.703 29.1445C148.328 30.5273 148.141 32.0039 148.141 33.5742ZM179.641 35.4023V34.5938C179.641 31.8516 180.039 29.3086 180.836 26.9648C181.633 24.5977 182.781 22.5469 184.281 20.8125C185.805 19.0547 187.656 17.6953 189.836 16.7344C192.039 15.75 194.523 15.2578 197.289 15.2578C200.078 15.2578 202.562 15.75 204.742 16.7344C206.945 17.6953 208.809 19.0547 210.332 20.8125C211.855 22.5469 213.016 24.5977 213.812 26.9648C214.609 29.3086 215.008 31.8516 215.008 34.5938V35.4023C215.008 38.1445 214.609 40.6875 213.812 43.0312C213.016 45.375 211.855 47.4258 210.332 49.1836C208.809 50.918 206.957 52.2773 204.777 53.2617C202.598 54.2227 200.125 54.7031 197.359 54.7031C194.57 54.7031 192.074 54.2227 189.871 53.2617C187.691 52.2773 185.84 50.918 184.316 49.1836C182.793 47.4258 181.633 45.375 180.836 43.0312C180.039 40.6875 179.641 38.1445 179.641 35.4023ZM188.113 34.5938V35.4023C188.113 37.1133 188.289 38.7305 188.641 40.2539C188.992 41.7773 189.543 43.1133 190.293 44.2617C191.043 45.4102 192.004 46.3125 193.176 46.9688C194.348 47.625 195.742 47.9531 197.359 47.9531C198.93 47.9531 200.289 47.625 201.438 46.9688C202.609 46.3125 203.57 45.4102 204.32 44.2617C205.07 43.1133 205.621 41.7773 205.973 40.2539C206.348 38.7305 206.535 37.1133 206.535 35.4023V34.5938C206.535 32.9062 206.348 31.3125 205.973 29.8125C205.621 28.2891 205.059 26.9414 204.285 25.7695C203.535 24.5977 202.574 23.6836 201.402 23.0273C200.254 22.3477 198.883 22.0078 197.289 22.0078C195.695 22.0078 194.312 22.3477 193.141 23.0273C191.992 23.6836 191.043 24.5977 190.293 25.7695C189.543 26.9414 188.992 28.2891 188.641 29.8125C188.289 31.3125 188.113 32.9062 188.113 34.5938ZM230.617 23.2734V68.625H222.145V15.9609H229.949L230.617 23.2734ZM255.402 34.6289V35.3672C255.402 38.1328 255.074 40.6992 254.418 43.0664C253.785 45.4102 252.836 47.4609 251.57 49.2188C250.328 50.9531 248.793 52.3008 246.965 53.2617C245.137 54.2227 243.027 54.7031 240.637 54.7031C238.27 54.7031 236.195 54.2695 234.414 53.4023C232.656 52.5117 231.168 51.2578 229.949 49.6406C228.73 48.0234 227.746 46.125 226.996 43.9453C226.27 41.7422 225.754 39.3281 225.449 36.7031V33.8555C225.754 31.0664 226.27 28.5352 226.996 26.2617C227.746 23.9883 228.73 22.0312 229.949 20.3906C231.168 18.75 232.656 17.4844 234.414 16.5938C236.172 15.7031 238.223 15.2578 240.566 15.2578C242.957 15.2578 245.078 15.7266 246.93 16.6641C248.781 17.5781 250.34 18.8906 251.605 20.6016C252.871 22.2891 253.82 24.3281 254.453 26.7188C255.086 29.0859 255.402 31.7227 255.402 34.6289ZM246.93 35.3672V34.6289C246.93 32.8711 246.766 31.2422 246.438 29.7422C246.109 28.2188 245.594 26.8828 244.891 25.7344C244.188 24.5859 243.285 23.6953 242.184 23.0625C241.105 22.4062 239.805 22.0781 238.281 22.0781C236.781 22.0781 235.492 22.3359 234.414 22.8516C233.336 23.3438 232.434 24.0352 231.707 24.9258C230.98 25.8164 230.418 26.8594 230.02 28.0547C229.621 29.2266 229.34 30.5039 229.176 31.8867V38.707C229.457 40.3945 229.938 41.9414 230.617 43.3477C231.297 44.7539 232.258 45.8789 233.5 46.7227C234.766 47.543 236.383 47.9531 238.352 47.9531C239.875 47.9531 241.176 47.625 242.254 46.9688C243.332 46.3125 244.211 45.4102 244.891 44.2617C245.594 43.0898 246.109 41.7422 246.438 40.2188C246.766 38.6953 246.93 37.0781 246.93 35.3672ZM271.117 23.2734V68.625H262.645V15.9609H270.449L271.117 23.2734ZM295.902 34.6289V35.3672C295.902 38.1328 295.574 40.6992 294.918 43.0664C294.285 45.4102 293.336 47.4609 292.07 49.2188C290.828 50.9531 289.293 52.3008 287.465 53.2617C285.637 54.2227 283.527 54.7031 281.137 54.7031C278.77 54.7031 276.695 54.2695 274.914 53.4023C273.156 52.5117 271.668 51.2578 270.449 49.6406C269.23 48.0234 268.246 46.125 267.496 43.9453C266.77 41.7422 266.254 39.3281 265.949 36.7031V33.8555C266.254 31.0664 266.77 28.5352 267.496 26.2617C268.246 23.9883 269.23 22.0312 270.449 20.3906C271.668 18.75 273.156 17.4844 274.914 16.5938C276.672 15.7031 278.723 15.2578 281.066 15.2578C283.457 15.2578 285.578 15.7266 287.43 16.6641C289.281 17.5781 290.84 18.8906 292.105 20.6016C293.371 22.2891 294.32 24.3281 294.953 26.7188C295.586 29.0859 295.902 31.7227 295.902 34.6289ZM287.43 35.3672V34.6289C287.43 32.8711 287.266 31.2422 286.938 29.7422C286.609 28.2188 286.094 26.8828 285.391 25.7344C284.688 24.5859 283.785 23.6953 282.684 23.0625C281.605 22.4062 280.305 22.0781 278.781 22.0781C277.281 22.0781 275.992 22.3359 274.914 22.8516C273.836 23.3438 272.934 24.0352 272.207 24.9258C271.48 25.8164 270.918 26.8594 270.52 28.0547C270.121 29.2266 269.84 30.5039 269.676 31.8867V38.707C269.957 40.3945 270.438 41.9414 271.117 43.3477C271.797 44.7539 272.758 45.8789 274 46.7227C275.266 47.543 276.883 47.9531 278.852 47.9531C280.375 47.9531 281.676 47.625 282.754 46.9688C283.832 46.3125 284.711 45.4102 285.391 44.2617C286.094 43.0898 286.609 41.7422 286.938 40.2188C287.266 38.6953 287.43 37.0781 287.43 35.3672ZM312.18 15.9609V54H303.672V15.9609H312.18ZM303.109 5.97656C303.109 4.6875 303.531 3.62109 304.375 2.77734C305.242 1.91016 306.438 1.47656 307.961 1.47656C309.461 1.47656 310.645 1.91016 311.512 2.77734C312.379 3.62109 312.812 4.6875 312.812 5.97656C312.812 7.24219 312.379 8.29688 311.512 9.14062C310.645 9.98438 309.461 10.4062 307.961 10.4062C306.438 10.4062 305.242 9.98438 304.375 9.14062C303.531 8.29688 303.109 7.24219 303.109 5.97656ZM329.863 24.082V54H321.391V15.9609H329.371L329.863 24.082ZM328.352 33.5742L325.609 33.5391C325.633 30.8438 326.008 28.3711 326.734 26.1211C327.484 23.8711 328.516 21.9375 329.828 20.3203C331.164 18.7031 332.758 17.4609 334.609 16.5938C336.461 15.7031 338.523 15.2578 340.797 15.2578C342.625 15.2578 344.277 15.5156 345.754 16.0312C347.254 16.5234 348.531 17.332 349.586 18.457C350.664 19.582 351.484 21.0469 352.047 22.8516C352.609 24.6328 352.891 26.8242 352.891 29.4258V54H344.383V29.3906C344.383 27.5625 344.113 26.1211 343.574 25.0664C343.059 23.9883 342.297 23.2266 341.289 22.7812C340.305 22.3125 339.074 22.0781 337.598 22.0781C336.145 22.0781 334.844 22.3828 333.695 22.9922C332.547 23.6016 331.574 24.4336 330.777 25.4883C330.004 26.543 329.406 27.7617 328.984 29.1445C328.562 30.5273 328.352 32.0039 328.352 33.5742ZM385.902 15.9609H393.602V52.9453C393.602 56.3672 392.875 59.2734 391.422 61.6641C389.969 64.0547 387.941 65.8711 385.34 67.1133C382.738 68.3789 379.727 69.0117 376.305 69.0117C374.852 69.0117 373.234 68.8008 371.453 68.3789C369.695 67.957 367.984 67.2773 366.32 66.3398C364.68 65.4258 363.309 64.2188 362.207 62.7188L366.18 57.7266C367.539 59.3438 369.039 60.5273 370.68 61.2773C372.32 62.0273 374.043 62.4023 375.848 62.4023C377.793 62.4023 379.445 62.0391 380.805 61.3125C382.188 60.6094 383.254 59.5664 384.004 58.1836C384.754 56.8008 385.129 55.1133 385.129 53.1211V24.5742L385.902 15.9609ZM360.062 35.4023V34.6641C360.062 31.7812 360.414 29.1562 361.117 26.7891C361.82 24.3984 362.828 22.3477 364.141 20.6367C365.453 18.9023 367.047 17.5781 368.922 16.6641C370.797 15.7266 372.918 15.2578 375.285 15.2578C377.746 15.2578 379.844 15.7031 381.578 16.5938C383.336 17.4844 384.801 18.7617 385.973 20.4258C387.145 22.0664 388.059 24.0352 388.715 26.332C389.395 28.6055 389.898 31.1367 390.227 33.9258V36.2812C389.922 39 389.406 41.4844 388.68 43.7344C387.953 45.9844 386.992 47.9297 385.797 49.5703C384.602 51.2109 383.125 52.4766 381.367 53.3672C379.633 54.2578 377.582 54.7031 375.215 54.7031C372.895 54.7031 370.797 54.2227 368.922 53.2617C367.07 52.3008 365.477 50.9531 364.141 49.2188C362.828 47.4844 361.82 45.4453 361.117 43.1016C360.414 40.7344 360.062 38.168 360.062 35.4023ZM368.535 34.6641V35.4023C368.535 37.1367 368.699 38.7539 369.027 40.2539C369.379 41.7539 369.906 43.0781 370.609 44.2266C371.336 45.3516 372.25 46.2422 373.352 46.8984C374.477 47.5312 375.801 47.8477 377.324 47.8477C379.316 47.8477 380.945 47.4258 382.211 46.582C383.5 45.7383 384.484 44.6016 385.164 43.1719C385.867 41.7188 386.359 40.1016 386.641 38.3203V31.957C386.5 30.5742 386.207 29.2852 385.762 28.0898C385.34 26.8945 384.766 25.8516 384.039 24.9609C383.312 24.0469 382.398 23.3438 381.297 22.8516C380.195 22.3359 378.895 22.0781 377.395 22.0781C375.871 22.0781 374.547 22.4062 373.422 23.0625C372.297 23.7188 371.371 24.6211 370.645 25.7695C369.941 26.918 369.414 28.2539 369.062 29.7773C368.711 31.3008 368.535 32.9297 368.535 34.6641Z" fill="#7273E9"/>
</svg>
